<?xml version="1.0" encoding="utf-8"?>
<svg xmlns="http://www.w3.org/2000/svg" height="128" width="128" viewBox="0 0 128 128">
  <g>
    <ellipse cy="64" cx="64" ry="64" rx="64" fill="#0084B6" />
    <path id="path1" transform="rotate(0,64,64) translate(30,34.78125) scale(2.125,2.125)  " fill="#FFFFFF" d="M3.2000122,9.5L28.600037,9.5 28.600037,10.299995 28.600037,10.699997 28.600037,10.799995 28.900024,10.799995C29.5,10.799995,29.900024,11.099998,29.799988,11.5L29.799988,11.799995 32,11.799995 32,14.399994 29.600037,14.399994 29.400024,16C29.400024,16.399994,29,16.699997,28.700012,16.699997L28.700012,25.199997 28.600037,25.199997C28.299988,26.5,27.100037,27.5,25.700012,27.5L6.1000061,27.5C4.7000122,27.5,3.5,26.5,3.2000122,25.199997L3.1000061,25.199997 3.1000061,16.699997C2.7000122,16.699997,2.3999939,16.399994,2.3000183,16L2.1000061,14.299995 0,14.299995 0,11.699997 1.8999939,11.699997 1.8999939,11.399994C1.8999939,11 2.3000183,10.699997 2.8000183,10.699997 2.8999939,10.699997 3,10.699997 3.2000122,10.799995L3.2000122,10.699997 3.2000122,10.299995z M15.900024,0C17.5,0 18.900024,0.59999847 18.900024,1.3999939 18.900024,1.7999954 18.5,2.1999969 17.900024,2.3999939L17.900024,3.2999954 18.200012,3.2999954 18.200012,3.5C23.200012,3.6999969,27.200012,4.5,28.299988,5.5999985L28.5,5.5999985C29,5.5999985 29.5,5.8999939 29.5,6.1999969 29.5,6.5 29.100037,6.7999954 28.5,6.7999954L3.5,6.7999954C3,6.7999954 2.5,6.5 2.5,6.1999969 2.5,5.8999939 2.8999939,5.5999985 3.5,5.5999985L3.7000122,5.5999985C4.8000183,4.5,8.8000183,3.6999969,13.800018,3.5L13.800018,3.2999954 14.100006,3.2999954 14.100006,2.3999939C13.5,2.1999969 13.100006,1.7999954 13.100006,1.3999939 12.899994,0.59999847 14.200012,0 15.900024,0z" />
  </g>
</svg>

