<?xml version="1.0" encoding="utf-8"?>
<svg xmlns="http://www.w3.org/2000/svg" height="128" width="128" viewBox="0 0 128 128">
  <g>
    <ellipse cy="64" cx="64" ry="64" rx="64" fill="#0084B6" />
    <path id="path1" transform="rotate(0,64,64) translate(30,35.3125) scale(2.125,2.125)  " fill="#FFFFFF" d="M29.5,0L32,3 32,26.899994 26.899963,26.899994 26.899963,3z M20.5,0L23,3 23,6.3999939 25.200012,6.3999939 25.200012,9.1999969 23,9.1999969 23,19.800003 25.200012,19.800003 25.200012,22.599991 23,22.599991 23,27 17.899963,27 17.899963,3z M11.5,0L14,3 14,6.3999939 16.200012,6.3999939 16.200012,9.1999969 14,9.1999969 14,19.800003 16.200012,19.800003 16.200012,22.599991 14,22.599991 14,27 9,27 9,3z M2.5,0L5,3 5,6.3999939 7,6.3999939 7,9.1999969 5,9.1999969 5,19.800003 7,19.800003 7,22.599991 5,22.599991 5,27 0,27 0,3z" />
  </g>
</svg>

