<?xml version="1.0" encoding="utf-8"?>
<svg xmlns="http://www.w3.org/2000/svg" height="128" width="128" viewBox="0 0 128 128">
  <g>
    <ellipse cy="64" cx="64" ry="64" rx="64" fill="#0084B6" />
    <path id="path1" transform="rotate(0,64,64) translate(30,33.1489334452836) scale(2.12765976239423,2.12765976239423)  " fill="#FFFFFF" d="M18.755001,0.43096196L29.959997,11.635982 29.959997,8.0789575 31.959997,8.0789575 31.959997,15.078957 24.959997,15.078957 24.959997,13.078957 28.57497,13.078957 17.341002,1.8449655z M0,0L6,0 6,4.9999999 11,4.9999999 11,9.9999999 16,9.9999999 16,15 21,15 21,20 26,20 26,25 31,25 31,29 29,29 29,27 24,27 24,22 19,22 19,17 14,17 14,12 9,12 9,6.9999999 3.9999998,6.9999999 3.9999998,2.0000001 0,2.0000001z" />
  </g>
</svg>

