<?xml version="1.0" encoding="utf-8"?>
<svg xmlns="http://www.w3.org/2000/svg" height="128" width="128" viewBox="0 0 128 128">
  <g>
    <ellipse cy="64" cx="64" ry="64" rx="64" fill="#0084B6" />
    <path id="path1" transform="rotate(0,64,64) translate(35.674812078476,30) scale(2.125,2.125)  " fill="#FFFFFF" d="M15.829992,27.445971L15.727083,27.466006C14.951799,27.606894 14.150964,27.682022 13.329996,27.682022 12.508918,27.682022 11.707985,27.606894 10.932614,27.466006L10.829992,27.44603 10.829992,30 15.829992,30z M2.0839987,17.000022C2.7649982,21.150043 7.523999,25.682024 13.329996,25.682024 19.135001,25.682024 23.894002,21.150043 24.575002,17.000022z M8.8289921,7.8970003C9.5299942,8.8780055 10.592996,10.430014 10.592996,11.51002 10.592996,12.590026 9.802994,13.46603 8.8289921,13.46603 7.8549907,13.46603 7.0659888,12.590026 7.0659888,11.51002 7.0659888,10.430014 8.0829909,8.9810061 8.8289921,7.8970003z M12.245992,0L12.423991,0.0030002594C14.947992,0.093000412,16.829992,2.0880003,16.829992,4.7130003L16.829992,15.000022 26.659,15.000022 26.659,16.000022C26.659,20.220315,23.104917,24.976527,17.970868,26.855423L17.829992,26.905085 17.829992,32 8.8299916,32 8.8299916,26.905261 8.6885989,26.855423C3.5540743,24.976527,-1.585413E-07,20.220315,0,16.000022L0,15.000022 14.829992,15.000022 14.829992,4.7130003C14.829992,3.1719999 13.785992,2.0459995 12.333991,2.0010004 10.877992,2.0459995 9.8299916,3.1719999 9.8299916,4.7130003L9.8299916,5 7.8299916,5 7.8299916,4.7130003C7.8299916,2.0880003,9.7159913,0.093000412,12.245992,0.0030002594z" />
  </g>
</svg>

